<svg width="16" height="16" viewBox="0 0 16 16" fill="none" xmlns="http://www.w3.org/2000/svg">
<path d="M14.5448 6.85044C14.7052 6.85044 14.8591 6.78672 14.9725 6.67329C15.0859 6.55987 15.1497 6.40603 15.1497 6.24562V1.40829C15.1497 1.24788 15.0859 1.09404 14.9725 0.980614C14.8591 0.867189 14.7052 0.803467 14.5448 0.803467H9.70629C9.54589 0.803467 9.39205 0.867189 9.27862 0.980614C9.1652 1.09404 9.10148 1.24788 9.10148 1.40829V6.24562C9.10148 6.40603 9.1652 6.55987 9.27862 6.67329C9.39205 6.78672 9.54589 6.85044 9.70629 6.85044H14.5448ZM6.07738 6.85044C6.23779 6.85044 6.39163 6.78672 6.50506 6.67329C6.61848 6.55987 6.6822 6.40603 6.6822 6.24562V1.40829C6.6822 1.24788 6.61848 1.09404 6.50506 0.980614C6.39163 0.867189 6.23779 0.803467 6.07738 0.803467H1.24005C1.07964 0.803467 0.925801 0.867189 0.812376 0.980614C0.698951 1.09404 0.635229 1.24788 0.635229 1.40829V6.24562C0.635229 6.40603 0.698951 6.55987 0.812376 6.67329C0.925801 6.78672 1.07964 6.85044 1.24005 6.85044H6.07738ZM14.5448 15.3179C14.7052 15.3179 14.8591 15.2542 14.9725 15.1407C15.0859 15.0273 15.1497 14.8735 15.1497 14.7131V9.87453C15.1497 9.71412 15.0859 9.56028 14.9725 9.44686C14.8591 9.33343 14.7052 9.26971 14.5448 9.26971H9.70629C9.54589 9.26971 9.39205 9.33343 9.27862 9.44686C9.1652 9.56028 9.10148 9.71412 9.10148 9.87453V14.7131C9.10148 14.8735 9.1652 15.0273 9.27862 15.1407C9.39205 15.2542 9.54589 15.3179 9.70629 15.3179H14.5448ZM6.07738 15.3179C6.23779 15.3179 6.39163 15.2542 6.50506 15.1407C6.61848 15.0273 6.6822 14.8735 6.6822 14.7131V9.87453C6.6822 9.71412 6.61848 9.56028 6.50506 9.44686C6.39163 9.33343 6.23779 9.26971 6.07738 9.26971H1.24005C1.07964 9.26971 0.925801 9.33343 0.812376 9.44686C0.698951 9.56028 0.635229 9.71412 0.635229 9.87453V14.7131C0.635229 14.8735 0.698951 15.0273 0.812376 15.1407C0.925801 15.2542 1.07964 15.3179 1.24005 15.3179H6.07738Z" fill="#7B7B7B"/>
</svg>
